<?xml version="1.0" standalone="no"?>
<!DOCTYPE svg PUBLIC "-//W3C//DTD SVG 20010904//EN"
 "http://www.w3.org/TR/2001/REC-SVG-20010904/DTD/svg10.dtd">
<svg version="1.0" xmlns="http://www.w3.org/2000/svg"
 width="500.000000pt" height="500.000000pt" viewBox="0 0 500.000000 500.000000"
 preserveAspectRatio="xMidYMid meet">
<metadata>
Created by potrace 1.14, written by Peter Selinger 2001-2017
</metadata>
<g transform="translate(0.000000,500.000000) scale(0.100000,-0.100000)"
fill="#000000" stroke="none">
<path d="M2371 4574 c-222 -30 -410 -88 -626 -194 -618 -300 -1018 -838 -1141
-1535 -27 -152 -37 -389 -25 -561 30 -422 138 -751 350 -1070 293 -441 773
-760 1301 -868 393 -79 739 -56 1145 79 253 84 477 191 556 265 42 40 63 102
53 155 -10 53 -59 114 -111 137 -59 26 -111 19 -195 -28 -131 -72 -256 -133
-344 -167 -290 -114 -586 -148 -924 -106 -501 63 -954 365 -1206 804 -48 85
-124 256 -153 345 -95 298 -114 694 -50 1029 92 473 374 892 764 1131 185 113
432 197 682 230 131 18 447 7 574 -19 196 -40 372 -104 544 -200 176 -97 192
-104 248 -105 69 -1 115 26 145 84 42 84 22 184 -48 237 -152 116 -424 236
-690 307 -238 63 -597 84 -849 50z"/>
<path d="M1523 3713 c-36 -7 -72 -51 -78 -96 -3 -23 -5 -554 -3 -1179 3 -1136
3 -1137 24 -1165 42 -56 131 -53 171 6 17 24 18 84 23 1011 l5 985 408 -625
c225 -344 420 -635 434 -647 33 -31 93 -31 127 -1 13 13 209 304 435 647 l411
623 0 -972 c0 -1078 -3 -1022 65 -1054 41 -20 68 -20 104 -2 65 34 61 -55 61
1236 l0 1172 -28 27 c-37 38 -94 48 -134 24 -22 -13 -167 -222 -501 -720
l-471 -702 -465 698 c-256 383 -474 704 -486 713 -23 18 -70 27 -102 21z"/>
</g>
</svg>
