<?xml version="1.0" standalone="no"?>
<!DOCTYPE svg PUBLIC "-//W3C//DTD SVG 20010904//EN"
 "http://www.w3.org/TR/2001/REC-SVG-20010904/DTD/svg10.dtd">
<svg version="1.0" xmlns="http://www.w3.org/2000/svg"
 width="428.000000pt" height="428.000000pt" viewBox="0 0 428.000000 428.000000"
 preserveAspectRatio="xMidYMid meet">
<metadata>
Created by potrace 1.14, written by Peter Selinger 2001-2017
</metadata>
<g transform="translate(0.000000,428.000000) scale(0.100000,-0.100000)"
fill="#000000" stroke="none">
<path d="M1900 4068 c-30 -4 -62 -8 -70 -9 -97 -6 -460 -117 -460 -140 0 -5
-3 -8 -7 -7 -16 4 -82 -26 -76 -34 3 -5 -1 -8 -8 -7 -15 3 -139 -57 -139 -67
0 -3 5 -2 12 2 7 4 8 3 4 -5 -4 -6 -11 -9 -16 -6 -15 9 -192 -114 -184 -128 4
-7 4 -9 -1 -5 -11 11 -47 -11 -39 -24 4 -7 3 -8 -4 -4 -16 10 -247 -218 -237
-235 5 -7 4 -10 -2 -6 -12 7 -120 -128 -116 -144 2 -5 -1 -9 -6 -9 -23 0 -207
-341 -197 -366 3 -8 2 -12 -4 -9 -9 6 -14 -10 -13 -42 1 -7 -2 -11 -6 -8 -11
6 -63 -173 -55 -187 4 -6 3 -8 -3 -5 -10 7 -36 -113 -52 -243 -13 -101 -13
-375 0 -480 17 -141 77 -395 97 -410 4 -3 7 -9 8 -15 1 -22 17 -65 23 -65 4 0
8 -7 8 -16 0 -26 66 -153 76 -147 6 3 7 1 3 -6 -7 -11 46 -115 79 -156 9 -11
13 -14 9 -6 -4 9 -3 12 4 7 6 -4 9 -12 7 -19 -6 -14 81 -133 169 -232 140
-158 360 -327 554 -425 89 -44 106 -50 120 -38 15 11 16 11 4 -3 -11 -15 -9
-18 18 -27 16 -6 30 -8 30 -4 0 4 4 2 8 -4 18 -28 342 -114 472 -125 61 -5
430 -3 475 3 108 14 145 21 145 28 0 4 11 5 25 2 14 -2 25 0 25 5 0 6 11 8 25
5 15 -2 25 0 25 7 0 7 4 10 9 7 10 -7 229 67 281 94 19 10 73 37 120 60 47 24
131 74 188 113 153 104 371 304 357 327 -4 6 -1 9 7 8 7 -2 12 3 11 9 -2 7 2
12 9 10 7 -1 17 8 23 21 5 12 13 22 17 22 32 0 295 463 285 502 -3 10 -1 16 3
13 12 -7 53 122 44 136 -4 7 -3 9 4 6 9 -6 20 31 28 88 0 6 4 18 9 28 4 9 4
24 1 33 -3 8 -2 13 3 10 10 -7 36 177 27 199 -3 9 -2 14 3 11 5 -4 9 77 10
185 1 106 -3 188 -7 185 -5 -3 -7 6 -4 20 9 49 -54 360 -80 391 -6 7 -8 13 -4
13 15 0 -85 238 -106 251 -5 3 -9 8 -7 10 6 11 -14 48 -23 43 -7 -4 -8 -2 -4
4 6 10 -54 128 -73 142 -3 3 -12 16 -20 30 -33 59 -93 130 -103 124 -8 -5 -9
-1 -5 10 5 14 -26 51 -133 157 -78 77 -145 137 -149 134 -5 -3 -11 2 -14 9 -7
19 -183 137 -191 129 -3 -4 -6 -1 -6 5 0 12 -118 78 -132 74 -5 -1 -8 2 -8 7
0 9 -48 26 -62 23 -5 -1 -8 2 -8 7 0 11 -115 57 -235 94 -111 35 -138 40 -130
26 4 -6 -4 -4 -18 5 -57 38 -473 60 -647 34z m1163 -263 c-3 -9 -8 -14 -10
-11 -3 3 -2 9 2 15 9 16 15 13 8 -4z m-1539 -11 c3 -8 2 -12 -4 -9 -6 3 -10
10 -10 16 0 14 7 11 14 -7z m1685 -98 c-3 -3 -11 5 -18 17 -13 21 -12 21 5 5
10 -10 16 -20 13 -22z m-1275 -74 c3 -5 -1 -9 -9 -9 -8 0 -12 4 -9 9 3 4 7 8
9 8 2 0 6 -4 9 -8z m1641 -221 c-9 -8 -36 -10 -30 -2 2 4 11 8 20 8 8 0 13 -3
10 -6z m-2372 -556 c-3 -9 -8 -14 -10 -11 -3 3 -2 9 2 15 9 16 15 13 8 -4z
m1901 -331 c3 -8 2 -12 -4 -9 -6 3 -10 10 -10 16 0 14 7 11 14 -7z m-539 -23
c3 -5 2 -12 -3 -15 -5 -3 -9 1 -9 9 0 17 3 19 12 6z m-785 -65 c0 -2 -8 -10
-17 -17 -16 -13 -17 -12 -4 4 13 16 21 21 21 13z m-997 -61 c-3 -9 -8 -14 -10
-11 -3 3 -2 9 2 15 9 16 15 13 8 -4z m-82 -12 c13 -16 12 -17 -3 -4 -10 7 -18
15 -18 17 0 8 8 3 21 -13z m2495 -71 c-17 -16 -18 -16 -5 5 7 12 15 20 18 17
3 -2 -3 -12 -13 -22z m-1032 -88 c3 -8 2 -12 -4 -9 -6 3 -10 10 -10 16 0 14 7
11 14 -7z m-873 -11 c13 -16 12 -17 -3 -4 -10 7 -18 15 -18 17 0 8 8 3 21 -13z
m1916 -68 c0 -8 -4 -12 -9 -9 -5 3 -6 10 -3 15 9 13 12 11 12 -6z m81 -40 c-3
-3 -9 2 -12 12 -6 14 -5 15 5 6 7 -7 10 -15 7 -18z m-1444 -41 c3 -8 2 -12 -4
-9 -6 3 -10 10 -10 16 0 14 7 11 14 -7z m212 4 c3 -4 -1 -5 -10 -4 -8 1 -18 5
-22 8 -3 4 1 5 10 4 8 -1 18 -5 22 -8z m344 8 c0 -2 -8 -10 -17 -17 -16 -13
-17 -12 -4 4 13 16 21 21 21 13z m325 -94 c-3 -3 -11 0 -18 7 -9 10 -8 11 6 5
10 -3 15 -9 12 -12z m-2404 -149 c-12 -20 -14 -14 -5 12 4 9 9 14 11 11 3 -2
0 -13 -6 -23z m2009 -66 c0 -2 -10 -12 -22 -23 l-23 -19 19 23 c18 21 26 27
26 19z m157 -22 c0 -8 -4 -12 -9 -9 -5 3 -6 10 -3 15 9 13 12 11 12 -6z
m-1766 -168 c-10 -9 -11 -8 -5 6 3 10 9 15 12 12 3 -3 0 -11 -7 -18z m1689
-61 c0 -2 -7 -7 -16 -10 -8 -3 -12 -2 -9 4 6 10 25 14 25 6z m1285 -166 c-3
-5 -12 -10 -18 -10 -7 0 -6 4 3 10 19 12 23 12 15 0z m-2465 -234 c0 -2 -7 -7
-16 -10 -8 -3 -12 -2 -9 4 6 10 25 14 25 6z m2215 -195 c3 -5 2 -12 -3 -15 -5
-3 -9 1 -9 9 0 17 3 19 12 6z m-400 -319 c-3 -3 -11 0 -18 7 -9 10 -8 11 6 5
10 -3 15 -9 12 -12z m175 12 c0 -8 -19 -13 -24 -6 -3 5 1 9 9 9 8 0 15 -2 15
-3z m-1217 -139 c-3 -9 -8 -14 -10 -11 -3 3 -2 9 2 15 9 16 15 13 8 -4z m158
-18 c-10 -9 -11 -8 -5 6 3 10 9 15 12 12 3 -3 0 -11 -7 -18z m180 6 c13 -16
12 -17 -3 -4 -17 13 -22 21 -14 21 2 0 10 -8 17 -17z m9 -153 c0 -5 -2 -10 -4
-10 -3 0 -8 5 -11 10 -3 6 -1 10 4 10 6 0 11 -4 11 -10z"/>
</g>
</svg>
